<?xml version="1.0" encoding="UTF-8"?>
<svg id="Layer_1" data-name="Layer 1" xmlns="http://www.w3.org/2000/svg" viewBox="0 0 841.89 281.29">
  <defs>
    <style>
      .cls-1 {
        fill: #005c5d;
      }

      .cls-1, .cls-2, .cls-3 {
        stroke-width: 0px;
      }

      .cls-2 {
        fill: #010101;
      }

      .cls-3 {
        fill: #d3b489;
      }
    </style>
  </defs>
  <rect class="cls-1" x="561.2" y=".41" width="280.47" height="280.47"/>
  <path class="cls-1" d="m12.66,121.36c7.93,0,13.93-2.73,18-8.17,4.07-5.45,6.11-12.97,6.11-22.56v-39.01h-15.05v41.84c0,7.85-3.04,12.63-9.14,12.63-3.71,0-7.27-.26-11.12-1.28l-1.22-.24,2.84,14.71c3.34,1.38,6.54,2.07,9.6,2.07Z"/>
  <polygon class="cls-1" points="330.32 30.38 337.52 38.77 349.41 28.96 340.24 17.95 330.43 25.91 323.44 17.52 311.45 27.54 320.72 38.55 330.32 30.38"/>
  <polygon class="cls-1" points="341.88 11.09 333.04 .41 321.48 10 330.43 20.68 341.88 11.09"/>
  <polygon class="cls-1" points="368.5 34.41 375.48 42.47 387.69 32.34 378.31 21.33 368.93 28.96 362.06 21.01 349.62 31.14 359.22 42.14 368.5 34.41"/>
  <path class="cls-1" d="m451.51,49.33c2.11,9.23,3.93,19.14,5.46,29.75-6.76-.22-12.4-1.02-16.91-2.4l2.73-23.97h-14.73l-3.16,26.26c-5.24-.22-9.64-1.31-13.2-3.27l3.49-22.99h-14.94l-3.82,26.37h-9.38c-3.56,0-6.4-.76-8.51-2.29v-25.17h-15.27v27.46h-15.71c-3.56,0-6.4-.76-8.51-2.29v-25.17h-15.27v27.46h-15.71c-3.71,0-6.58-.8-8.62-2.4.22-1.45.33-2.83.33-4.14,0-6.76-1.69-12.47-5.07-17.16-3.38-4.69-7.58-7.03-12.6-7.03-4.44,0-8.49,1.6-12.16,4.79-3.67,3.2-7.29,7.67-10.85,13.4-2.91,4.79-5.11,8.08-6.6,9.86-1.49,1.78-3.04,2.67-4.64,2.67H63.93V.41h-15.27v96.1h197.99c3.27,0,5.96-.53,8.07-1.58,2.11-1.05,4.29-3.03,6.55-5.94l24,10.24,9.71-9.59c2.18,2.33,4.18,4.05,6,5.18,1.82,1.13,4.04,1.69,6.65,1.69h19.64l5.45-8.83c1.53,1.67,2.63,2.85,3.33,3.54.69.69,1.69,1.56,3,2.61,1.31,1.05,2.58,1.76,3.82,2.13,1.24.36,2.65.54,4.26.54h19.64l5.45-8.83c1.53,1.67,2.63,2.85,3.33,3.54.69.69,1.69,1.56,3,2.61,1.31,1.05,2.58,1.76,3.82,2.13s2.65.54,4.26.54h21.93l1.2-7.74c6.11,5.16,12.62,7.74,19.53,7.74l5.78-7.84c9.16,5.23,18,7.84,26.51,7.84l10.91-16.89c-1.46-11.99-3.42-23.39-5.89-34.21l-15.05,3.92Zm-166.79,34.21l-15.93-6.86c2.25-4.21,4.09-7.12,5.51-8.72,1.42-1.6,2.93-2.4,4.53-2.4,1.96,0,3.67.93,5.13,2.78,1.45,1.85,2.18,4.23,2.18,7.14,0,2.69-.47,5.38-1.42,8.06Z"/>
  <rect class="cls-1" x="482.82" y=".41" width="15.27" height="96.1"/>
  <polygon class="cls-1" points="159.38 205.42 169.31 217.19 181.41 207.06 171.71 195.29 159.38 205.42"/>
  <polygon class="cls-1" points="214.9 123.03 221.89 131.09 234.1 120.96 224.72 109.96 215.34 117.58 208.47 109.63 196.03 119.76 205.63 130.77 214.9 123.03"/>
  <polygon class="cls-1" points="272.83 140.35 285.04 130.22 275.66 119.22 266.28 126.84 259.41 118.89 246.97 129.02 256.57 140.03 265.85 132.29 272.83 140.35"/>
  <path class="cls-1" d="m452.49,176.97h-12c-3.71,0-6.58-.8-8.62-2.4.22-1.45.33-2.83.33-4.14,0-6.75-1.69-12.48-5.07-17.16-3.38-4.69-7.58-7.03-12.6-7.03-4.44,0-8.49,1.6-12.16,4.79-3.67,3.2-7.29,7.66-10.85,13.4-2.91,4.79-5.11,8.08-6.6,9.86-1.49,1.78-3.04,2.67-4.64,2.67h-2.29c-3.64,0-6.47-.76-8.51-2.29-1.17-9.66-2.66-19.36-4.47-29.09l-15.05,3.27c1.6,8.57,3.06,17.94,4.36,28.11-6.76-.22-12.4-1.02-16.91-2.4l2.73-23.97h-14.73l-3.16,26.26c-5.02-.22-9.31-1.24-12.87-3.05l3.16-23.21h-14.94l-3.49,26.37h-9.05s0,0,0,0h-.65c-3.56,0-6.4-.76-8.51-2.29v-25.17h-15.27v27.46h-19.09c-3.71,0-6.58-.04-8.62-.11,3.49-4.36,5.24-9.59,5.24-15.69,0-5.52-1.75-10.37-5.24-14.55-3.49-4.18-8.22-6.27-14.18-6.27-5.31,0-10.36,2.27-15.16,6.81-4.8,4.54-8.47,10.59-11.02,18.14,2.69,4.43,5.93,8.32,9.71,11.66h-16.8s0,0,0,0h-.66c-3.56,0-6.4-.76-8.51-2.29v-25.17h-15.27v27.46h-87.47c-4.44,0-8.07-.65-10.91-1.96v-62.33h-15.05v84.12c-3.78.94-7.45,1.41-11.02,1.41-8.29,0-14.07-1.45-17.34-4.36-3.27-2.91-4.91-7.59-4.91-14.06,0-4.79.84-10.2,2.51-16.23l-.87-.87-11.56,2.07c-2.47,6.61-3.71,12.89-3.71,18.85,0,10.39-1.72,18.23,3.99,23.54,5.71,5.3,13.47,7.96,23.29,7.96s20-3.09,30.11-9.26l4.57-16.78c4.51,3.56,8.22,5.34,11.13,5.34h90.75l5.45-8.83c1.53,1.67,2.63,2.85,3.33,3.54.69.69,1.69,1.56,3,2.61,1.31,1.05,2.58,1.76,3.82,2.13,1.24.37,2.65.54,4.26.54h1.09s0,0,0,0h4.25c9.67,0,18.91-2.14,27.71-6.43,7.56,4.29,15.6,6.43,24.11,6.43h22.58l5.45-8.83c1.53,1.67,2.63,2.85,3.33,3.54.69.69,1.69,1.56,3,2.61,1.31,1.05,2.58,1.76,3.82,2.13,1.24.37,2.65.54,4.26.54h1.09s0,0,0,0h21.6l.98-7.19c6.04,4.79,12.36,7.19,18.98,7.19l5.78-7.85c9.16,5.23,18,7.85,26.51,7.85l5.13-7.95c2.47,2.76,4.64,4.77,6.49,6.05,1.85,1.27,4.2,1.91,7.04,1.91h1.53c3.27,0,5.96-.52,8.07-1.58,2.11-1.05,4.29-3.03,6.55-5.94l24,10.24,9.71-9.59c2.18,2.32,4.18,4.05,6,5.17,1.82,1.13,4.04,1.69,6.65,1.69h28.58v-81.72h-16.14v64.29Zm-233-3.05c-5.31-2.47-9.49-6.14-12.54-11,3.05-3.41,6.14-5.12,9.27-5.12,2.54,0,4.54.74,6,2.23,1.45,1.49,2.18,3.36,2.18,5.61,0,3.12-1.64,5.88-4.91,8.28Zm197.66,7.52l-15.93-6.86c2.25-4.21,4.09-7.12,5.51-8.72,1.42-1.6,2.93-2.4,4.53-2.4,1.96,0,3.67.93,5.13,2.78,1.45,1.85,2.18,4.23,2.18,7.14,0,2.69-.47,5.38-1.42,8.06Z"/>
  <rect class="cls-1" x="482.81" y="112.68" width="15.27" height="81.72"/>
  <path class="cls-2" d="m8.32,253.91v6.35h14.63v6.98h-14.63v13.38H.43v-33.69h23.48v6.98h-15.59Z"/>
  <path class="cls-2" d="m54.32,277.16c-2.31,2.31-5.84,3.47-10.58,3.47s-8.27-1.16-10.58-3.47c-2.31-2.31-3.46-5.85-3.46-10.63v-19.6h7.89v18.63c0,2.6.51,4.52,1.52,5.75,1.01,1.23,2.56,1.85,4.64,1.85s3.63-.62,4.64-1.85c1.01-1.24,1.52-3.15,1.52-5.75v-18.63h7.89v19.6c0,4.78-1.15,8.33-3.46,10.63Z"/>
  <path class="cls-2" d="m88.38,253.91h-9.43v26.71h-7.89v-26.71h-9.43v-6.98h26.75v6.98Z"/>
  <path class="cls-2" d="m116.86,277.16c-2.31,2.31-5.84,3.47-10.58,3.47s-8.27-1.16-10.58-3.47c-2.31-2.31-3.46-5.85-3.46-10.63v-19.6h7.89v18.63c0,2.6.51,4.52,1.52,5.75,1.01,1.23,2.56,1.85,4.64,1.85s3.63-.62,4.64-1.85c1.01-1.24,1.52-3.15,1.52-5.75v-18.63h7.89v19.6c0,4.78-1.15,8.33-3.46,10.63Z"/>
  <path class="cls-2" d="m154.39,280.14v.48h-8.52l-6.59-12.75-1.4.05h-2.45v12.7h-7.89v-33.69h13.04c3.91,0,6.81.72,8.71,2.17,1.89,1.44,2.84,3.66,2.84,6.64,0,2.08-.5,4.97-1.49,8.66-.99.77-2.18,1.43-3.56,1.97l7.31,13.76Zm-18.96-18.67h2.79c2.31,0,4.26-.16,5.87-.48.23-1.19.34-2.18.34-2.98,0-3.05-1.93-4.57-5.77-4.57h-3.22v8.04Z"/>
  <path class="cls-2" d="m183.16,273.64v6.98h-23.96v-33.69h23.48v6.98h-15.59v6.35h14.63v6.98h-14.63v6.4h16.07Z"/>
  <path class="cls-2" d="m206.44,246.93v33.69h-7.89v-33.69h7.89Z"/>
  <path class="cls-2" d="m234.88,280.62l-10.3-14.15c-1.51-2.08-2.74-4.09-3.7-6.01l-.29.09c.22,1.13.34,3.35.34,6.69v13.38h-7.26v-33.69h7.26l10.3,14.34c1.6,2.31,2.84,4.32,3.7,6.02l.29-.1c-.23-1.12-.34-3.35-.34-6.69v-13.57h7.26v33.69h-7.26Z"/>
  <path class="cls-2" d="m277.6,246.93l-10.63,33.69h-9.67l-10.83-33.69h8.37l7.7,25.12,7.46-25.12h7.6Z"/>
  <path class="cls-2" d="m305.89,273.64v6.98h-23.96v-33.69h23.48v6.98h-15.59v6.35h14.63v6.98h-14.63v6.4h16.07Z"/>
  <path class="cls-2" d="m323.74,260.84l.58.24c4.17,1.67,7.05,1.82,8.64,3.43,1.59,1.61,2.38,3.71,2.38,6.3,0,2.28-.59,4.62-1.78,7.02-1.22.87-2.88,1.55-4.98,2.05-2.1.5-4.27.75-6.52.75-4.71,0-8.56-.56-11.55-1.68v-6.98l.38-.34c4.01,1.28,7.97,1.93,11.88,1.93,1.86,0,3.48-.16,4.86-.48.03-.23.05-.54.05-.96,0-.93-.43-1.72-1.27-2.38-.85-.66-2.53-1.47-5.03-2.43l-.58-.24c-4.04-1.6-6.8-1.79-8.27-3.52-1.48-1.73-2.21-4.07-2.21-7.02,0-2.53.59-4.77,1.78-6.69,2.92-1.92,6.8-2.89,11.64-2.89,3.98,0,7.31.55,10.01,1.64v6.98l-.43.34c-3.85-1.25-7.2-1.88-10.06-1.88-1.89,0-3.61.23-5.15.67-.07.39-.1.69-.1.91,0,1.19.37,2.13,1.11,2.82.74.69,2.28,1.5,4.62,2.43Z"/>
  <path class="cls-2" d="m363.81,253.91h-9.43v26.71h-7.89v-26.71h-9.43v-6.98h26.75v6.98Z"/>
  <path class="cls-2" d="m402.06,246.93v33.69h-7.89v-13.23c0-2.79.14-5.2.43-7.22h-.43c-.39,1.96-1.12,4.14-2.21,6.54l-4.43,10.01h-6.01l-4.52-10.01c-1.03-2.5-1.73-4.68-2.12-6.54h-.43c.29,2.02.43,4.43.43,7.22v13.23h-7.22v-33.69h7.79l9.91,22.33,9.24-22.33h7.46Z"/>
  <path class="cls-2" d="m433.23,273.64v6.98h-23.96v-33.69h23.48v6.98h-15.59v6.35h14.63v6.98h-14.63v6.4h16.07Z"/>
  <path class="cls-2" d="m460.23,280.62l-10.3-14.15c-1.51-2.08-2.74-4.09-3.71-6.01l-.29.09c.23,1.13.34,3.35.34,6.69v13.38h-7.26v-33.69h7.26l10.3,14.34c1.6,2.31,2.84,4.32,3.7,6.02l.29-.1c-.23-1.12-.34-3.35-.34-6.69v-13.57h7.26v33.69h-7.26Z"/>
  <path class="cls-2" d="m498.09,253.91h-9.43v26.71h-7.89v-26.71h-9.43v-6.98h26.75v6.98Z"/>
  <polygon class="cls-3" points="783.04 252.46 783.04 237.62 783.04 222.78 783.04 207.94 783.04 193.1 783.04 178.26 783.04 163.42 783.04 148.57 783.04 133.73 783.04 118.89 768.2 118.89 768.2 133.73 768.2 148.57 768.2 163.42 768.2 178.26 768.2 193.1 768.2 207.94 768.2 222.78 768.2 237.62 753.36 237.62 753.36 222.78 738.52 222.78 738.52 237.62 738.52 252.46 753.36 252.46 768.2 252.46 783.04 252.46"/>
  <polygon class="cls-3" points="753.36 193.1 753.36 178.26 753.36 163.42 753.36 148.57 753.36 133.73 753.36 118.89 738.52 118.89 738.52 133.73 738.52 148.57 738.52 163.42 738.52 178.26 738.52 193.1 738.52 207.94 753.36 207.94 753.36 193.1"/>
  <polygon class="cls-3" points="797.88 118.89 797.88 133.73 797.88 148.57 797.88 163.42 797.88 178.26 797.88 193.1 797.88 207.94 797.88 222.78 797.88 237.62 797.88 252.46 812.71 252.46 812.71 237.62 812.71 222.78 812.71 207.94 812.71 193.1 812.71 178.26 812.71 163.42 812.71 148.57 812.71 133.73 812.71 118.89 797.88 118.89"/>
  <path class="cls-3" d="m694.01,237.62h-14.84v14.84h44.51v-74.21h-44.51v44.53h29.68v14.84h-14.84Zm0-29.68v-14.84h14.84v14.84h-14.84Z"/>
  <path class="cls-3" d="m619.82,252.46h44.51v-74.21h-44.51v44.53h29.68v14.84h-44.51v-118.73h-14.84v133.57h29.68Zm14.84-44.52v-14.84h14.84v14.84h-14.84Z"/>
  <path class="cls-3" d="m649.5,163.42h74.19v-44.52h-44.51v29.68h-44.51v-14.84h29.68v-14.84h-44.51v44.52h29.68Zm44.51-29.68h14.84v14.84h-14.84v-14.84Z"/>
  <path class="cls-3" d="m783.04,29.33h-14.84v44.52h29.68v14.84h-29.68v14.84h44.51V29.33h-29.68Zm14.84,29.68h-14.84v-14.84h14.84v14.84Z"/>
  <path class="cls-3" d="m723.69,29.33h-14.84v44.52h29.68v14.84h-44.51v-29.68h-44.51v29.68h-44.51v-14.84h29.68v-14.84h-44.51v44.52h163.22V29.33h-29.68Zm-59.35,59.37v-14.84h14.84v14.84h-14.84Zm74.19-29.68h-14.84v-14.84h14.84v14.84Z"/>
  <polygon class="cls-3" points="619.82 44.18 634.66 44.18 649.5 44.18 664.33 44.18 679.17 44.18 694.01 44.18 694.01 29.33 679.17 29.33 664.33 29.33 649.5 29.33 634.66 29.33 619.82 29.33 604.98 29.33 590.14 29.33 590.14 44.18 604.98 44.18 619.82 44.18"/>
</svg>